<svg width="24" height="24" viewBox="0 0 24 24" fill="none" xmlns="http://www.w3.org/2000/svg">
<path d="M17.8333 20H6.16667C5.52234 20 5 19.5095 5 18.9044C5 17.0922 6.19724 15.4701 8.00426 14.8341L8.36303 14.7078C10.708 13.8825 13.292 13.8825 15.637 14.7078L15.9957 14.8341C17.8028 15.4701 19 17.0922 19 18.9044C19 19.5095 18.4777 20 17.8333 20Z" stroke="#01170A" stroke-linecap="square" stroke-linejoin="round"/>
<path d="M10.2213 11.4728C11.3377 12.0113 12.6623 12.0113 13.7787 11.4728C14.8178 10.9715 15.5623 10.0586 15.8067 8.98588L15.8719 8.69958C16.1219 7.60262 15.8549 6.45773 15.1396 5.55928L15.0349 5.42771C14.3195 4.52912 13.1947 4 12 4C10.8053 4 9.68051 4.52913 8.96512 5.42771L8.86038 5.55928C8.14509 6.45773 7.8781 7.60262 8.12805 8.69958L8.19329 8.98588C8.43771 10.0586 9.18218 10.9715 10.2213 11.4728Z" stroke="#01170A" stroke-linecap="square" stroke-linejoin="round"/>
</svg>
